<svg width="60" height="60" viewBox="0 0 60 60" fill="none" xmlns="http://www.w3.org/2000/svg">
<g clip-path="url(#clip0)">
<path d="M52.8351 29.1717C49.7861 25.9533 45.7208 23.7513 41.4862 22.9044C39.6229 22.3962 37.7597 22.0574 35.8964 21.8881C40.6393 16.2983 39.7923 7.82898 34.2026 3.08616C28.6128 -1.65666 20.1435 -0.809727 15.4007 4.78003C10.6579 10.3698 11.5048 18.8391 17.0945 23.5819C18.1109 24.4289 19.1272 25.1064 20.1435 25.4452V29.1717L17.4333 26.6309C15.0619 24.2595 11.166 24.2595 8.62522 26.6309C6.25381 29.0023 6.08443 32.7288 8.45584 35.1002L16.2476 44.2471C16.5864 46.6185 17.4333 48.8205 18.619 50.8531C19.466 52.3776 20.6517 53.9021 21.8374 55.0878V58.3061C21.8374 59.3225 22.5149 60 23.5312 60H46.5678C47.4147 60 48.2616 59.1531 48.2616 58.3061V53.9021C51.48 50.0062 53.1739 45.094 53.1739 40.1818V30.3574C53.3432 29.6798 53.1739 29.3411 52.8351 29.1717ZM15.5701 13.2493C15.5701 7.65959 20.1435 3.25555 25.7332 3.42493C31.323 3.42493 35.7271 7.99837 35.5577 13.5881C35.5577 16.6371 34.2026 19.3473 31.8312 21.2105V12.7412C31.7447 11.2732 31.0999 9.89398 30.0291 8.88615C28.9583 7.87832 27.5425 7.31828 26.072 7.32082C23.0231 7.15144 20.3129 9.69223 20.3129 12.7412V21.5493C17.4333 19.8554 15.7395 16.6371 15.5701 13.2493ZM49.9555 40.0124C50.1249 44.4165 48.6004 48.6511 45.7208 52.0388C45.3821 52.3776 45.0433 52.7164 45.0433 53.2245V56.7817H25.3945V54.4103C25.3945 53.9021 25.0557 53.3939 24.7169 53.0552C23.5312 52.0388 22.5149 50.8531 21.668 49.3287C20.6517 47.6348 19.9741 45.6022 19.6353 43.5695C19.6353 43.2308 19.466 42.892 19.2966 42.5532L11.166 32.8982C10.6579 32.39 10.3191 31.7125 10.3191 30.8655C10.3191 30.188 10.6579 29.3411 11.166 28.8329C12.3517 27.8166 14.0456 27.8166 15.2313 28.8329L20.1435 33.7451V38.8267L23.3618 37.1328V12.7412C23.5312 11.5555 24.5475 10.5392 25.9026 10.7086C27.0883 10.7086 28.274 11.5555 28.274 12.7412V32.2206L31.6618 32.8982V25.1064C31.8312 24.937 32.0005 24.937 32.1699 24.7676C33.3556 24.7676 34.5413 24.937 35.727 25.1064V33.7451L38.4372 34.2533V25.4452L40.4699 25.9533C41.3168 26.1227 42.1637 26.4615 43.0107 26.8003V35.2696L45.7208 35.7777V27.986C47.2453 28.6635 48.6004 29.6798 49.7861 30.8655L49.9555 40.0124Z" fill="#262262"/>
</g>
<defs>
<clipPath id="clip0">
<rect width="60" height="60" fill="white"/>
</clipPath>
</defs>
</svg>
