<svg width="60" height="60" viewBox="0 0 60 60" fill="none" xmlns="http://www.w3.org/2000/svg">
<path d="M41.25 13.75C42.5761 13.75 43.8479 13.2232 44.7855 12.2855C45.7232 11.3479 46.25 10.0761 46.25 8.75C46.25 7.42392 45.7232 6.15215 44.7855 5.21447C43.8479 4.27678 42.5761 3.75 41.25 3.75C39.9239 3.75 38.6522 4.27678 37.7145 5.21447C36.7768 6.15215 36.25 7.42392 36.25 8.75C36.25 10.0761 36.7768 11.3479 37.7145 12.2855C38.6522 13.2232 39.9239 13.75 41.25 13.75ZM32.25 48.5L34.75 37.5L40 42.5V57.5H45V38.75L39.75 33.75L41.25 26.25C42.9628 28.2131 45.0762 29.7866 47.4479 30.8646C49.8196 31.9427 52.3947 32.5003 55 32.5V27.5C50.6 27.575 46.5 25.275 44.25 21.5L41.75 17.5C40.85 16 39.25 15 37.5 15C36.75 15 36.25 15.25 35.5 15.25L22.5 20.75V32.5H27.5V24L32 22.25L28 42.5L15.75 40L14.75 45L32.25 48.5ZM10 22.5C9.33696 22.5 8.70107 22.2366 8.23223 21.7678C7.76339 21.2989 7.5 20.663 7.5 20C7.5 19.337 7.76339 18.7011 8.23223 18.2322C8.70107 17.7634 9.33696 17.5 10 17.5H17.5V22.5H10ZM12.5 12.5C11.837 12.5 11.2011 12.2366 10.7322 11.7678C10.2634 11.2989 10 10.663 10 10C10 9.33696 10.2634 8.70107 10.7322 8.23223C11.2011 7.76339 11.837 7.5 12.5 7.5H25V12.5H12.5ZM7.5 32.5C6.83696 32.5 6.20107 32.2366 5.73223 31.7678C5.26339 31.2989 5 30.663 5 30C5 29.337 5.26339 28.7011 5.73223 28.2322C6.20107 27.7634 6.83696 27.5 7.5 27.5H17.5V32.5H7.5Z" fill="#262262"/>
</svg>
