<svg width="60" height="60" viewBox="0 0 60 60" fill="none" xmlns="http://www.w3.org/2000/svg">
<path d="M50.1562 22.5079C50.1589 19.1016 49.2983 15.7501 47.6547 12.7665C46.0111 9.78296 43.6382 7.26458 40.7576 5.44658C37.877 3.62859 34.5826 2.57029 31.1821 2.37051C27.7816 2.17074 24.386 2.83601 21.3123 4.3042C18.2386 5.77239 15.5872 7.99559 13.6055 10.7662C11.6239 13.5368 10.3768 16.7644 9.98056 20.1476C9.58436 23.5309 10.052 26.9593 11.3399 30.1128C12.6278 33.2663 14.6939 36.0419 17.3452 38.1806V56.2579C17.3452 56.4976 17.4065 56.7334 17.5232 56.9427C17.6399 57.1521 17.8083 57.3281 18.0122 57.4542C18.2161 57.5802 18.4489 57.652 18.6884 57.6627C18.9278 57.6735 19.1661 57.6228 19.3805 57.5156L29.9995 52.2051L40.6226 57.5158C40.837 57.623 41.0752 57.6736 41.3147 57.6628C41.5541 57.652 41.7869 57.5802 41.9908 57.4542C42.1947 57.3281 42.363 57.1521 42.4797 56.9427C42.5964 56.7334 42.6577 56.4976 42.6577 56.2579V38.1785C44.9987 36.2924 46.8874 33.9058 48.1851 31.194C49.4827 28.4823 50.1562 25.5142 50.1562 22.5079V22.5079ZM12.6562 22.5079C12.6562 19.0776 13.6734 15.7244 15.5792 12.8722C17.485 10.0201 20.1937 7.79709 23.3628 6.48438C26.532 5.17168 30.0192 4.82821 33.3836 5.49742C36.748 6.16664 39.8383 7.81847 42.2639 10.244C44.6894 12.6696 46.3413 15.76 47.0105 19.1243C47.6797 22.4887 47.3362 25.9759 46.0235 29.1451C44.7108 32.3142 42.4878 35.023 39.6357 36.9287C36.7835 38.8345 33.4303 39.8517 30 39.8517C25.4018 39.8465 20.9933 38.0175 17.7419 34.766C14.4904 31.5146 12.6615 27.1062 12.6562 22.5079V22.5079ZM39.8452 53.9826L30.6284 49.375C30.4331 49.2774 30.2178 49.2265 29.9995 49.2265C29.7812 49.2265 29.5659 49.2774 29.3707 49.375L20.1577 53.9826V40.0884C23.1636 41.7775 26.5536 42.6646 30.0016 42.6643C33.4496 42.664 36.8395 41.7764 39.8452 40.0867V53.9826ZM30 35.1642C32.5032 35.1642 34.9501 34.4219 37.0314 33.0312C39.1127 31.6405 40.7349 29.6639 41.6929 27.3513C42.6508 25.0386 42.9014 22.4939 42.4131 20.0388C41.9247 17.5837 40.7193 15.3286 38.9493 13.5586C37.1793 11.7886 34.9242 10.5832 32.4691 10.0949C30.014 9.60651 27.4693 9.85715 25.1567 10.8151C22.844 11.773 20.8674 13.3952 19.4767 15.4765C18.086 17.5578 17.3438 20.0047 17.3438 22.5079C17.3476 25.8634 18.6823 29.0803 21.0549 31.453C23.4276 33.8257 26.6445 35.1603 30 35.1642V35.1642ZM30 12.6642C31.9469 12.6642 33.8501 13.2415 35.4689 14.3231C37.0877 15.4048 38.3494 16.9422 39.0944 18.7409C39.8395 20.5396 40.0344 22.5188 39.6546 24.4283C39.2748 26.3378 38.3373 28.0918 36.9606 29.4685C35.5839 30.8452 33.8299 31.7827 31.9204 32.1625C30.0109 32.5423 28.0317 32.3474 26.233 31.6024C24.4342 30.8573 22.8969 29.5956 21.8152 27.9768C20.7336 26.358 20.1563 24.4548 20.1563 22.5079C20.1592 19.8981 21.1972 17.396 23.0426 15.5506C24.8881 13.7051 27.3902 12.6671 30 12.6642V12.6642Z" fill="#262262"/>
</svg>
