<svg width="61" height="61" viewBox="0 0 61 61" fill="none" xmlns="http://www.w3.org/2000/svg">
<path fill-rule="evenodd" clip-rule="evenodd" d="M22.6194 20.9382C22.6461 20.9393 22.6729 20.9398 22.6998 20.9398C22.7267 20.9398 22.7535 20.9393 22.7802 20.9382L39.1209 20.9382C39.1476 20.9393 39.1744 20.9398 39.2013 20.9398C39.2283 20.9398 39.2551 20.9393 39.2817 20.9382H45.0642C46.1598 20.9382 46.4685 20.9447 46.6942 20.9808C48.1383 21.212 49.2707 22.3444 49.5019 23.7885C49.538 24.0142 49.5445 24.3229 49.5445 25.4185C49.5445 26.514 49.538 26.8228 49.5019 27.0485C49.2707 28.4926 48.1383 29.625 46.6942 29.8561C46.4685 29.8923 46.1598 29.8987 45.0642 29.8987H41.2297V29.7588C41.2297 28.637 40.3202 27.7276 39.1984 27.7276C38.0766 27.7276 37.1672 28.637 37.1672 29.7588V29.8987H24.731V29.7588C24.731 28.637 23.8216 27.7276 22.6998 27.7276C21.578 27.7276 20.6685 28.637 20.6685 29.7588V29.8987H16.8333C15.7378 29.8987 15.429 29.8923 15.2034 29.8561C13.7593 29.625 12.6269 28.4926 12.3957 27.0485C12.3595 26.8228 12.3531 26.514 12.3531 25.4185C12.3531 24.3229 12.3595 24.0142 12.3957 23.7885C12.6269 22.3444 13.7593 21.212 15.2034 20.9808C15.429 20.9447 15.7378 20.9382 16.8333 20.9382H22.6194ZM20.6685 33.9612H16.8333L16.6729 33.9613H16.6729C15.8131 33.9616 15.1502 33.9619 14.5612 33.8676C14.5126 33.8598 14.4643 33.8516 14.4161 33.8429V34.1314C14.4161 37.1985 14.4177 39.3767 14.5569 41.0813C14.6943 42.7622 14.9553 43.8028 15.3755 44.6274C16.2194 46.2837 17.5659 47.6302 19.2221 48.4741C20.0467 48.8943 21.0874 49.1553 22.7683 49.2926C24.4729 49.4319 26.651 49.4335 29.7182 49.4335H32.18C35.2471 49.4335 37.4253 49.4319 39.1299 49.2926C40.8107 49.1553 41.8514 48.8943 42.676 48.4741C44.3323 47.6302 45.6788 46.2837 46.5227 44.6274C46.9429 43.8028 47.2039 42.7622 47.3412 41.0813C47.4805 39.3767 47.4821 37.1985 47.4821 34.1314V33.8428C47.4337 33.8515 47.3851 33.8598 47.3364 33.8676C46.7474 33.9619 46.0845 33.9616 45.2247 33.9613L45.0642 33.9612H41.2297V34.0998C41.2297 35.2216 40.3202 36.1311 39.1984 36.1311C38.0766 36.1311 37.1672 35.2217 37.1672 34.0998V33.9612H24.731V34.0998C24.731 35.2216 23.8216 36.1311 22.6998 36.1311C21.578 36.1311 20.6685 35.2216 20.6685 34.0998V33.9612ZM51.5286 31.6746C51.5391 31.7583 51.5446 31.8437 51.5446 31.9303V34.1314V34.2207C51.5446 37.1786 51.5446 39.5227 51.3902 41.4121C51.2324 43.3442 50.903 44.979 50.1424 46.4718C48.909 48.8924 46.941 50.8604 44.5204 52.0938C43.0276 52.8544 41.3928 53.1838 39.4607 53.3416C37.5713 53.496 35.2272 53.496 32.2693 53.496H32.18H29.7182H29.6288C26.6709 53.496 24.3269 53.496 22.4375 53.3416C20.5054 53.1838 18.8705 52.8544 17.3778 52.0938C14.9572 50.8604 12.9891 48.8924 11.7558 46.4718C10.9952 44.979 10.6658 43.3442 10.5079 41.4121C10.3536 39.5227 10.3536 37.1787 10.3536 34.2208L10.3536 34.1314V31.9303C10.3536 31.8439 10.359 31.7587 10.3695 31.6751C9.34123 30.6057 8.63046 29.2285 8.38426 27.6907C8.28996 27.1016 8.29022 26.4387 8.29057 25.5789L8.29061 25.4185L8.29057 25.258C8.29022 24.3982 8.28996 23.7353 8.38426 23.1463C8.89288 19.9692 11.3841 17.478 14.5612 16.9694C15.1502 16.8751 15.8131 16.8753 16.6729 16.8757H16.6729L16.8333 16.8757H20.7925C21.5617 11.9578 25.8168 8.19531 30.9506 8.19531C36.0844 8.19531 40.3394 11.9578 41.1086 16.8757H45.0642L45.2247 16.8757C46.0845 16.8753 46.7474 16.8751 47.3364 16.9694C50.5134 17.478 53.0047 19.9692 53.5133 23.1463C53.6076 23.7353 53.6073 24.3982 53.607 25.2579V25.258L53.607 25.4185L53.607 25.5789V25.579C53.6073 26.4388 53.6076 27.1016 53.5133 27.6907C53.2671 29.2283 52.5566 30.6053 51.5286 31.6746ZM36.9619 16.8757C36.2554 14.2169 33.8318 12.2578 30.9506 12.2578C28.0694 12.2578 25.6457 14.2169 24.9392 16.8757L36.9619 16.8757Z" fill="white"/>
</svg>
