<svg width="19" height="19" viewBox="0 0 19 19" fill="none" xmlns="http://www.w3.org/2000/svg">
<rect x="3.17188" y="2.55762" width="13.5" height="13.5" rx="2.25" stroke="#091230" stroke-width="1.125"/>
<path d="M5.42188 11.5576H14.4219" stroke="#091230" stroke-width="1.5" stroke-linecap="round" stroke-linejoin="round"/>
<path d="M5.42188 13.8076H12.9219" stroke="#091230" stroke-width="1.5" stroke-linecap="round" stroke-linejoin="round"/>
<path d="M7.67188 7.05762C6.84462 7.05762 6.17188 6.38487 6.17188 5.55762C6.17188 4.73037 6.84462 4.05762 7.67188 4.05762C8.49913 4.05762 9.17188 4.73037 9.17188 5.55762C9.17188 6.38487 8.49913 7.05762 7.67188 7.05762Z" fill="#091230"/>
<path d="M9.58501 10.0576H5.75941C5.57309 10.0576 5.42188 9.9064 5.42188 9.72008V9.04502C5.42188 8.36252 5.97678 7.80762 6.65927 7.80762H8.68447C9.36697 7.80762 9.92187 8.36252 9.92187 9.04502V9.72008C9.92255 9.9064 9.77133 10.0576 9.58501 10.0576Z" fill="#091230"/>
</svg>
