<svg width="24" height="24" viewBox="0 0 24 24" fill="none" xmlns="http://www.w3.org/2000/svg">
<path d="M11.9994 14C11.9107 14 11.8232 13.982 11.741 13.946L6.38436 11.5889C6.15169 11.4861 6 11.2559 6 11C6 10.7441 6.1504 10.5139 6.38436 10.4111L11.741 8.05401C11.9055 7.982 12.0945 7.982 12.259 8.05401L17.6156 10.4111C17.8483 10.5139 18 10.7441 18 11C18 11.2559 17.8496 11.4861 17.6156 11.5889L12.259 13.946C12.1755 13.982 12.0881 14 11.9994 14Z" fill="#676E86"/>
<path d="M12.7261 15.5464C12.4932 15.6558 12.2508 15.7099 12.0012 15.7099C11.7516 15.7099 11.5092 15.6558 11.2787 15.5476L8 14V14.591C8 15.115 8.25563 15.6069 8.66487 15.8747C9.81818 16.6253 10.9091 17 12 17C13.0909 17 14.1818 16.624 15.3351 15.8747C15.7456 15.6069 16 15.115 16 14.591V14L12.7261 15.5464Z" fill="#676E86"/>
<circle cx="12" cy="12" r="10" stroke="#676E86" stroke-width="2" stroke-linecap="round" stroke-linejoin="round" stroke-dasharray="1 4"/>
</svg>
