<svg width="56" height="56" viewBox="0 0 56 56" fill="none" xmlns="http://www.w3.org/2000/svg">
<path d="M3.82983 11C3.82983 9.34315 5.17298 8 6.82983 8H49.1702C50.8271 8 52.1702 9.34315 52.1702 11V45C52.1702 46.6569 50.8271 48 49.1702 48H6.82983C5.17298 48 3.82983 46.6569 3.82983 45V11Z" stroke="white" stroke-width="3" stroke-miterlimit="10"/>
<path d="M2.82983 15.618H51.1702" stroke="white" stroke-width="3" stroke-miterlimit="10"/>
<path d="M6.86084 12.3362H8.60351" stroke="white" stroke-width="2" stroke-miterlimit="10"/>
<path d="M10.3463 12.3362H12.089" stroke="white" stroke-width="2" stroke-miterlimit="10"/>
<path d="M13.8313 12.3362H15.574" stroke="white" stroke-width="2" stroke-miterlimit="10"/>
<path d="M39.4627 27.7118H16.53C16.5124 27.7125 16.4949 27.7082 16.4796 27.6995C16.4642 27.6908 16.4516 27.6779 16.4432 27.6624C16.4347 27.6469 16.4308 27.6294 16.4317 27.6118C16.4327 27.5941 16.4386 27.5771 16.4487 27.5627L19.4932 22.972H36.5063L39.5509 27.5627C39.5615 27.5776 39.5675 27.5953 39.5683 27.6136C39.569 27.6319 39.5645 27.65 39.5551 27.6658C39.5458 27.6816 39.5321 27.6943 39.5157 27.7025C39.4993 27.7106 39.4809 27.7139 39.4627 27.7118V27.7118Z" stroke="white" stroke-width="2" stroke-miterlimit="10" stroke-linecap="square"/>
<path d="M16.3877 27.9695L28.0235 41.7956L39.6051 27.9695C39.6248 27.9466 39.6375 27.9185 39.6415 27.8886C39.6456 27.8587 39.6408 27.8283 39.6279 27.801C39.615 27.7737 39.5944 27.7508 39.5687 27.7349C39.543 27.7191 39.5133 27.7111 39.4831 27.7118H16.4961C16.4671 27.7136 16.4392 27.7235 16.4154 27.7403C16.3917 27.7571 16.3732 27.7802 16.3619 27.807C16.3506 27.8338 16.347 27.8632 16.3516 27.8919C16.3561 27.9206 16.3686 27.9475 16.3877 27.9695V27.9695Z" stroke="white" stroke-width="2" stroke-miterlimit="10" stroke-linecap="square"/>
<path d="M28.2471 40.8665L32.1122 29.0612" stroke="white" stroke-width="2" stroke-miterlimit="10" stroke-linecap="square"/>
<path d="M23.4465 27.7118L27.7456 40.8801" stroke="white" stroke-width="2" stroke-miterlimit="10" stroke-linecap="square"/>
<path d="M29.2102 24.4571L32.1667 27.3389C32.2147 27.3883 32.2721 27.4276 32.3356 27.4544C32.3991 27.4813 32.4673 27.4951 32.5362 27.4951C32.6051 27.4951 32.6733 27.4813 32.7368 27.4544C32.8003 27.4276 32.8577 27.3883 32.9058 27.3389L36.1606 23.6976" stroke="white" stroke-width="2" stroke-miterlimit="10" stroke-linecap="square"/>
<path d="M20.5782 24.491L23.4465 27.7119L27.5624 23.6976" stroke="white" stroke-width="2" stroke-miterlimit="10" stroke-linecap="square"/>
</svg>
