<svg width="56" height="56" viewBox="0 0 56 56" fill="none" xmlns="http://www.w3.org/2000/svg">
<path d="M3.8298 12.8328C3.8298 11.1759 5.17295 9.83276 6.8298 9.83276H49.1702C50.8271 9.83276 52.1702 11.1759 52.1702 12.8328V46.8328C52.1702 48.4896 50.8271 49.8328 49.1702 49.8328H6.8298C5.17295 49.8328 3.8298 48.4896 3.8298 46.8328V12.8328Z" stroke="#262262" stroke-width="3" stroke-miterlimit="10"/>
<path d="M3.8298 18.4508L52.1702 18.3708" stroke="#262262" stroke-width="3" stroke-miterlimit="10"/>
<path d="M6.86081 14.1689H8.60348" stroke="#262262" stroke-width="3" stroke-miterlimit="10"/>
<path d="M10.3463 14.1689H12.0889" stroke="#262262" stroke-width="3" stroke-miterlimit="10"/>
<path d="M13.8315 14.1689H15.5741" stroke="#262262" stroke-width="3" stroke-miterlimit="10"/>
<path d="M29.685 37.0916V33.1317H27.7389C27.5422 32.3416 27.2291 31.5852 26.8099 30.8872L28.1661 29.531L25.3791 26.7034L24.023 28.0596C23.3253 27.6399 22.5688 27.3267 21.7785 27.1306V25.2117H17.7914V27.1578C17.0012 27.3539 16.2447 27.667 15.547 28.0867L14.1908 26.7306L11.3836 29.531L12.7397 30.8872C12.3176 31.5837 12.0044 32.3406 11.8107 33.1317H9.86465V37.0916H11.8175C12.0112 37.8827 12.3244 38.6396 12.7465 39.3361L11.3903 40.6923L14.1705 43.5199L15.5266 42.1637C16.2243 42.5835 16.9808 42.8966 17.7711 43.0927V45.0455H21.7379V43.0723C22.534 42.8845 23.2975 42.5782 24.0026 42.1637L25.3588 43.5199L28.1661 40.7194L26.8099 39.3632C27.2291 38.6653 27.5422 37.9088 27.7389 37.1188L29.685 37.0916Z" stroke="#262262" stroke-width="2" stroke-miterlimit="10"/>
<path d="M23.8807 35.1117C23.8807 35.923 23.6401 36.7162 23.1893 37.3908C22.7385 38.0655 22.0978 38.5913 21.3482 38.9018C20.5986 39.2123 19.7737 39.2935 18.9779 39.1352C18.1821 38.9769 17.4512 38.5862 16.8774 38.0125C16.3037 37.4388 15.913 36.7078 15.7547 35.912C15.5964 35.1162 15.6776 34.2914 15.9881 33.5417C16.2987 32.7921 16.8245 32.1514 17.4991 31.7007C18.1737 31.2499 18.9669 31.0093 19.7783 31.0093C20.8663 31.0093 21.9097 31.4415 22.6791 32.2108C23.4484 32.9802 23.8807 34.0236 23.8807 35.1117Z" stroke="#262262" stroke-width="2" stroke-miterlimit="10"/>
<path d="M41.6939 29.6869C41.8314 30.1637 41.8244 30.6706 41.6739 31.1434C41.5233 31.6162 41.2359 32.0338 40.848 32.3433C40.4601 32.6528 39.9892 32.8403 39.4947 32.8821C39.0002 32.9239 38.5045 32.8182 38.0701 32.5782C37.6358 32.3383 37.2823 31.9749 37.0545 31.5341C36.8266 31.0933 36.7346 30.5948 36.7901 30.1017C36.8455 29.6086 37.046 29.143 37.3661 28.7638C37.6862 28.3846 38.1115 28.1088 38.5883 27.9714C38.9049 27.8792 39.2365 27.8505 39.5642 27.8869C39.8919 27.9233 40.2092 28.0241 40.4978 28.1835C40.7864 28.343 41.0406 28.5578 41.2459 28.8158C41.4512 29.0738 41.6034 29.3699 41.6939 29.6869V29.6869Z" stroke="#262262" stroke-width="2" stroke-miterlimit="10"/>
<path d="M45.5319 28.602C45.4148 28.1998 45.2604 27.8093 45.0708 27.4357L45.9658 26.5135L43.2196 23.8012L42.3788 24.6692C41.4705 24.1644 40.4543 23.8853 39.4156 23.8555L39.0969 22.7434L35.4013 23.8555L35.72 24.9607C34.8899 25.5021 34.1942 26.2256 33.6858 27.0763L32.5263 26.7712L31.5431 30.4803L32.7772 30.8126C32.8105 31.2826 32.89 31.7482 33.0145 32.2026C33.162 32.6994 33.3668 33.1772 33.6248 33.6266L32.6755 34.603L35.3878 37.3154L36.4049 36.2711C37.2484 36.6932 38.1744 36.9247 39.1172 36.9492L39.5241 38.3732L43.2196 37.3086L42.806 35.8846C43.5497 35.3986 44.1847 34.7637 44.6707 34.0199L46.0743 34.3928L47.0982 30.6363L45.776 30.2837C45.7709 29.7147 45.6887 29.149 45.5319 28.602V28.602Z" stroke="#262262" stroke-width="2" stroke-miterlimit="10"/>
</svg>
