<svg width="90" height="90" viewBox="0 0 90 90" fill="none" xmlns="http://www.w3.org/2000/svg">
<g clip-path="url(#clip0)">
<path d="M74.2681 47.5676C73.5447 47.5676 72.9583 48.154 72.9583 48.8774C72.9583 49.7944 72.2123 50.5404 71.2953 50.5404C70.3784 50.5404 69.6322 49.7944 69.6322 48.8774C69.6322 48.1539 69.0458 47.5676 68.3224 47.5676C67.5991 47.5676 67.0127 48.154 67.0127 48.8774C67.0127 51.2388 68.934 53.1599 71.2953 53.1599C73.6565 53.1599 75.5778 51.2386 75.5778 48.8774C75.5778 48.1537 74.9914 47.5676 74.2681 47.5676Z" fill="#193769"/>
<path d="M86.5624 47.7817L82.8759 46.6008C82.4038 46.4494 82.0317 46.0726 81.8807 45.5925C81.1037 43.1223 79.9312 40.8032 78.3958 38.6994C77.696 37.7405 76.9178 36.8249 76.0678 35.9532C76.6116 33.5673 76.9073 30.8671 76.869 28.5343C76.8141 25.1971 76.1472 23.2398 74.8303 22.55C74.121 22.1781 71.9624 21.0482 60.2787 26.3965C60.0021 26.5231 59.7437 26.679 59.5044 26.8576C58.7167 26.6459 57.9117 26.4501 57.1017 26.2743C57.0041 26.2531 56.9036 26.2342 56.8053 26.2135C57.7521 24.1453 58.3049 21.899 58.4088 19.58C58.4411 18.8572 57.8816 18.2452 57.1588 18.213C56.4379 18.1771 55.8239 18.74 55.7917 19.4628C55.6211 23.2757 54.0394 26.8632 51.3383 29.5644C49.7245 31.1783 47.8348 32.3506 45.8209 33.0888C42.3283 32.5988 38.7708 32.5988 35.2782 33.0888C33.2641 32.3506 31.3747 31.1783 29.7608 29.5644C26.8791 26.6827 25.2919 22.8512 25.2919 18.7757C25.2919 14.7 26.8791 10.8687 29.7608 7.98692C32.6426 5.10499 36.4743 3.51786 40.5496 3.51786C44.6249 3.51786 48.4566 5.10499 51.3383 7.98692C52.4964 9.14497 53.4533 10.4665 54.1826 11.9144C54.508 12.5606 55.2957 12.8207 55.9417 12.4952C56.5879 12.17 56.8478 11.3823 56.5225 10.7363C55.6676 9.03845 54.5467 7.49034 53.1909 6.13436C49.8143 2.75778 45.3248 0.898193 40.5497 0.898193C35.7746 0.898193 31.2852 2.75778 27.9086 6.13436C24.532 9.51112 22.6724 14.0004 22.6724 18.7755C22.6724 23.5506 24.532 28.04 27.9086 31.4166C28.8826 32.3906 29.9422 33.2282 31.063 33.9299C31.0634 33.9299 31.0637 33.9298 31.0641 33.9298C30.2497 34.1414 29.4414 34.3791 28.6421 34.6463C27.9561 34.8757 27.5859 35.6176 27.8153 36.3039C28.0445 36.9899 28.7868 37.3601 29.4727 37.1309C36.6158 34.7429 44.4837 34.7429 51.6268 37.1309C51.7646 37.177 51.9045 37.1988 52.0422 37.1988C52.5901 37.1988 53.1009 36.8521 53.2842 36.3039C53.5136 35.6178 53.1434 34.8757 52.4573 34.6463C51.6581 34.3791 50.8498 34.1412 50.0354 33.9298C50.0358 33.9298 50.0361 33.9299 50.0365 33.9299C51.1574 33.2282 52.2169 32.3906 53.1909 31.4166C54.0526 30.5549 54.8132 29.614 55.4736 28.614C55.8346 28.6841 56.193 28.7576 56.5462 28.8342C57.0166 28.9364 57.4849 29.046 57.9489 29.1612C57.9343 29.2181 57.9194 29.2749 57.9073 29.3327C57.2685 32.3641 57.31 35.0451 58.0305 37.3009C58.6781 39.3285 59.8468 40.9712 61.5039 42.1836C63.457 43.6123 65.815 44.2295 67.9509 44.2295C69.5584 44.2295 71.0404 43.8797 72.1288 43.2632C73.36 42.5659 74.3915 41.0965 75.208 38.8905C75.5854 39.331 75.9431 39.7822 76.2803 40.2442C77.6473 42.117 78.6909 44.181 79.3821 46.3786C79.788 47.6694 80.7956 48.685 82.0772 49.0958L85.7637 50.2767C86.731 50.5866 87.3809 51.477 87.3809 52.4926V58.6054C87.3809 59.6211 86.731 60.5114 85.7637 60.8213L79.8242 62.7238C78.8739 63.0284 78.0697 63.6814 77.5598 64.5628C75.2263 68.5956 71.5576 71.9328 66.6548 74.4818C66.0885 74.7766 65.6961 75.3038 65.578 75.9285L63.6757 86.0013C63.6231 86.2788 63.38 86.4801 63.0976 86.4801H56.9123C56.6299 86.4801 56.3868 86.2787 56.3342 86.0013L55.2806 80.4345C55.0731 79.3392 54.0459 78.6116 52.9402 78.7791C50.2759 79.182 47.5305 79.3861 44.7808 79.3861C42.7351 79.3861 40.7155 79.272 38.7779 79.0468C37.7065 78.9236 36.7084 79.654 36.5082 80.7118L35.5069 86.0013C35.4544 86.2788 35.2113 86.4801 34.9288 86.4801H28.7436C28.4611 86.4801 28.218 86.2787 28.1647 85.9971L26.3331 76.4834C26.2151 75.8705 25.8302 75.3493 25.2763 75.0534C16.9189 70.5919 12.5016 63.1381 12.5016 53.4983C12.5016 48.6277 13.5671 44.3209 15.6686 40.697C17.6296 37.3151 20.4938 34.519 24.1815 32.3859C24.8077 32.0236 25.0216 31.2224 24.6595 30.5961C24.2974 29.9699 23.4962 29.7564 22.8698 30.1181C15.7192 34.2546 11.4064 40.6362 10.219 48.7415V48.7413C10.093 48.7299 9.9668 48.719 9.84111 48.7059C9.86396 47.8314 9.70576 46.949 9.36123 46.0926C8.60133 44.2037 7.04039 42.8403 5.38436 42.6193C4.07936 42.4446 2.83746 42.9987 1.97561 44.1374C0.725977 45.7887 0.929707 47.0954 1.32047 47.9009C1.98018 49.2602 3.67594 50.2217 6.49002 50.8262C6.41268 50.9421 6.3276 51.0584 6.23443 51.1753C4.57172 53.2606 2.61281 53.7217 1.34086 53.7651C0.59625 53.7902 0 54.3881 0 55.1332V55.1395C0 55.8745 0.579902 56.4739 1.31414 56.5075C1.40818 56.5119 1.50645 56.5141 1.60875 56.5141C3.2182 56.5141 5.80131 55.9205 8.28299 52.8087C8.6748 52.3175 8.99402 51.7993 9.23941 51.2639C9.48656 51.2919 9.72404 51.3158 9.9515 51.3369C9.9515 51.3363 9.9515 51.336 9.95168 51.3355C9.90703 52.0453 9.88225 52.7654 9.88225 53.4983C9.88225 58.9524 11.1825 63.8154 13.7466 67.9528C16.1109 71.7672 19.4959 74.8905 23.811 77.2393L25.5916 86.4882C25.878 88.0013 27.2036 89.0996 28.7436 89.0996H34.9288C36.4688 89.0996 37.7944 88.0013 38.0807 86.4882L38.986 81.7055C40.8662 81.9047 42.8128 82.0056 44.7806 82.0056C47.4806 82.0056 50.1775 81.8175 52.8057 81.4463L53.7601 86.4885C54.0466 88.0017 55.3721 89.0998 56.912 89.0998H63.0972C64.6372 89.0998 65.9628 88.0015 66.2493 86.4878L68.1015 76.6808C73.3342 73.9139 77.2784 70.279 79.8268 65.8747C80.0105 65.5572 80.2934 65.3243 80.6231 65.2187L86.5624 63.3162C88.6185 62.6572 90 60.7642 90 58.6051V52.4923C90 50.3333 88.6185 48.4403 86.5624 47.7817ZM74.0528 32.215C73.5486 36.5262 72.1963 40.2141 70.8376 40.9837C69.2931 41.8586 65.7274 42.0275 63.0503 40.0691C60.37 38.1084 59.4779 34.5826 60.4702 29.8727C60.4702 29.8726 60.4702 29.8726 60.4702 29.8726C60.5698 29.3995 60.9059 28.9903 61.3691 28.7783C67.9264 25.7767 71.707 24.7949 73.1115 24.7949C73.3235 24.7949 73.4813 24.8173 73.5864 24.8584C74.0083 25.3081 74.5617 27.8641 74.0528 32.215ZM3.67752 46.7571C3.54199 46.4776 3.86191 45.9863 4.06477 45.718C4.38627 45.2933 4.68246 45.2065 4.90623 45.2065C4.95352 45.2065 4.99764 45.2104 5.03807 45.2158C5.64029 45.2961 6.48404 45.9588 6.93105 47.07C7.03635 47.3315 7.17311 47.7648 7.2051 48.3052C5.39191 47.9295 3.9832 47.3879 3.67752 46.7571Z" fill="#193769"/>
<path d="M41.8215 17.2744V12.5874C43.4379 12.7029 44.0383 13.4417 44.5924 13.4417C45.2851 13.4417 45.6084 12.5643 45.6084 12.1256C45.6084 10.9941 43.3916 10.5093 41.8215 10.4631V9.83938C41.8215 9.56235 41.4751 9.30835 41.1288 9.30835C40.7361 9.30835 40.4591 9.56235 40.4591 9.83938V10.5089C38.2655 10.7399 36.0719 11.8944 36.0719 14.8038C36.0719 17.7594 38.381 18.5907 40.4591 19.3295V24.7557C38.1038 24.5709 37.4805 22.9546 36.7184 22.9546C36.1412 22.9546 35.6564 23.7166 35.6564 24.2708C35.6564 25.4022 37.5959 26.9492 40.4591 26.9955V27.7112C40.4591 27.9883 40.7363 28.2423 41.1288 28.2423C41.4753 28.2423 41.8215 27.9883 41.8215 27.7112V26.9262C44.3154 26.5797 46.024 25.0097 46.024 22.1696C46.024 19.0294 43.8304 18.0132 41.8215 17.2744ZM40.5976 16.8358C39.3738 16.3741 38.381 15.8892 38.381 14.5732C38.381 13.3724 39.3045 12.7951 40.5976 12.6336V16.8358V16.8358ZM41.6829 24.7094V19.8375C42.8142 20.3223 43.7147 20.9688 43.7147 22.4234C43.7147 23.7398 42.9297 24.4786 41.6829 24.7094Z" fill="#193769"/>
</g>
<defs>
<clipPath id="clip0">
<rect width="90" height="90" fill="white" transform="translate(0 -0.000976562)"/>
</clipPath>
</defs>
</svg>
