<svg width="90" height="90" viewBox="0 0 90 90" fill="none" xmlns="http://www.w3.org/2000/svg">
<g clip-path="url(#clip0)">
<path d="M87.6563 64.4165C85.9774 61.9492 83.1296 61.3468 80.0358 62.8026L78.3961 63.5246C80.9815 58.0138 81.3023 51.8708 80.0153 46.0682C78.5371 39.4039 74.9668 32.9478 69.4037 26.8793C68.9119 26.3426 68.0781 26.3064 67.5413 26.7984C67.0046 27.2902 66.9684 28.124 67.4604 28.6608C72.7068 34.3835 76.0649 40.4323 77.4416 46.639C78.8917 53.1768 78.0481 59.9191 74.3477 65.307L57.9399 72.5314L57.9535 70.6783C57.9538 70.6316 57.9517 70.5848 57.947 70.5382C57.5682 66.7296 54.6569 63.6951 50.8672 63.1589C50.856 63.1572 50.8447 63.1558 50.8333 63.1545L36.2503 61.4755C30.6427 60.6773 29.1985 57.3168 21.604 55.4007C21.0793 50.9481 21.7787 46.2075 23.6958 41.4549C26.583 34.2974 32.2314 27.3435 40.0618 21.2908C42.9803 23.3601 56.0009 23.6176 58.9146 20.9482C60.4074 22.0818 61.8321 23.2501 63.1592 24.4326C63.4104 24.6565 63.7237 24.7665 64.0357 24.7665C64.3985 24.7665 64.7599 24.6177 65.0202 24.3253C65.5045 23.7818 65.4563 22.9486 64.9128 22.4643C63.4581 21.1683 61.8933 19.8895 60.252 18.6536C60.6366 17.0227 60.0984 15.1139 58.678 13.9776C62.8052 7.7177 64.0056 3.62041 62.3475 1.47377C61.2086 -0.000856593 59.7918 0.691194 59.1868 0.986858C58.1612 1.48748 57.6021 1.51385 56.6585 0.896507C54.8583 -0.281404 52.9662 -0.319372 51.108 0.896507C50.1525 1.52176 49.4 1.52176 48.4448 0.896507C46.6444 -0.281404 44.753 -0.319372 42.8945 0.896507C41.94 1.52123 41.3787 1.48256 40.3694 0.980882C39.765 0.680472 38.3498 -0.0230051 37.2037 1.4518C35.5828 3.53797 36.6672 7.50606 40.516 13.5531C40.2803 13.6806 40.0556 13.8301 39.8459 14.001C38.3152 12.3845 35.8073 10.6986 32.1806 11.1036C29.1725 11.4402 26.9543 10.4462 25.6229 9.55321C25.0182 9.14821 24.1994 9.30957 23.7941 9.91391C23.3887 10.5186 23.5503 11.3374 24.1548 11.7427C25.852 12.8806 28.6725 14.1473 32.4731 13.7234C35.2751 13.4091 37.1763 14.8411 38.3598 16.2983C38.3437 16.3545 38.3287 16.4111 38.3148 16.4677C37.3053 16.4836 35.7966 16.5778 34.1351 16.9234C30.1393 17.7546 27.1731 19.6536 25.5572 22.4155C25.1896 23.0437 25.4009 23.8513 26.0291 24.219C26.6576 24.5865 27.4649 24.3751 27.8325 23.7468C30.2361 19.639 36.1032 19.1366 38.4335 19.1052C38.4435 19.1342 38.4553 19.1628 38.4658 19.1916C30.15 25.6064 24.3604 32.7602 21.2512 40.4682C19.286 45.3403 18.501 50.2214 18.8995 54.8601C17.6354 54.6731 16.3568 54.5727 15.072 54.5639V53.7668C15.072 51.6576 13.356 49.9418 11.2468 49.9418H5.19572C3.08652 49.9418 1.37054 51.6577 1.37054 53.7668V84.4659C1.37054 86.5753 3.08652 88.2911 5.19572 88.2911H11.2466C13.3558 88.2911 15.0718 86.5751 15.0718 84.4659V84.0904L28.2714 89.0033C30.0452 89.6634 31.9043 89.9983 33.7969 89.9983H53.4644C56.4713 89.9983 59.4031 89.1475 61.9428 87.5382C88.1798 70.9058 86.5865 71.9406 86.738 71.8063C88.8514 69.9304 89.2462 66.7533 87.6563 64.4165V64.4165ZM56.4411 19.3862C51.6208 20.6033 46.9341 20.6033 42.1128 19.3862C40.044 18.8633 40.6434 15.1736 42.8667 15.7312C47.18 16.814 51.3735 16.814 55.6871 15.7312C57.8717 15.1828 58.543 18.855 56.4411 19.3862ZM39.1654 3.32668C39.1758 3.33178 39.1862 3.33705 39.196 3.34198C40.98 4.22862 42.5433 4.27678 44.3378 3.10274C46.5836 1.63268 46.8274 3.98973 49.7761 3.98973C51.1957 3.98973 51.9792 3.47715 52.5512 3.10274C53.5069 2.47731 54.2596 2.47766 55.2152 3.10274C57.0176 4.28223 58.543 4.22405 60.3789 3.33864C60.6501 4.31633 60.0363 7.23096 56.1276 13.0504C54.1867 13.0173 51.3699 14.9237 43.3962 13.1492C39.4959 7.25451 38.8928 4.31159 39.1654 3.32668V3.32668ZM85.0593 69.7702L60.5318 85.3123C58.4149 86.6537 55.971 87.363 53.4645 87.363H33.7971C32.2195 87.363 30.6698 87.0838 29.1911 86.5334L15.0718 81.2781V67.0829C15.0718 66.3548 14.4817 65.7647 13.7538 65.7647C13.0259 65.7647 12.4358 66.3548 12.4358 67.0829V84.4666C12.4358 85.1223 11.9023 85.6556 11.2468 85.6556H5.19572C4.54006 85.6556 4.00674 85.1221 4.00674 84.4666V53.7675C4.00674 53.1118 4.54006 52.5787 5.19572 52.5787H11.2466C11.9023 52.5787 12.4356 53.112 12.4356 53.7675V60.9207C12.4356 61.6488 13.0257 62.2389 13.7536 62.2389C14.4815 62.2389 15.0716 61.6488 15.0716 60.9207V57.2008C25.9755 57.2843 28.4271 63.0315 35.8975 64.0881C35.9087 64.0899 35.92 64.0913 35.9312 64.0925L50.5135 65.7714C53.0669 66.14 55.032 68.1733 55.3164 70.7332L55.2981 73.2405H41.6988C40.9709 73.2405 40.3806 73.8306 40.3806 74.5587C40.3806 75.2868 40.9707 75.8769 41.6988 75.8769H56.6066C56.7731 75.8769 56.9654 75.84 57.1328 75.767C57.1596 75.7551 81.0852 65.221 81.1132 65.2087C82.8378 64.4423 84.4101 64.3328 85.4764 65.8997C86.3054 67.1174 86.1219 68.7635 85.0593 69.7702Z" fill="#193769"/>
<path d="M49.6243 59.8033C50.3522 59.8033 50.9425 59.2132 50.9425 58.4851V56.3002C54.6429 55.6997 56.802 52.7046 57.2717 49.9103C57.8585 46.4199 56.0302 43.3843 52.614 42.1768C52.0104 41.9634 51.4549 41.7594 50.9423 41.5623V33.1579C52.5017 33.4164 53.4379 34.2234 53.5061 34.2837C54.0415 34.7707 54.8702 34.7346 55.3615 34.202C55.8551 33.6669 55.8213 32.833 55.2863 32.3394C55.1933 32.2536 53.5789 30.8001 50.9423 30.4962V28.6216C50.9423 27.8936 50.3522 27.3035 49.6242 27.3035C48.8962 27.3035 48.3062 27.8936 48.3062 28.6216V30.6027C47.9883 30.6635 47.6628 30.7409 47.3283 30.8416C45.0923 31.515 43.421 33.4323 42.9663 35.8449C42.5537 38.0342 43.2479 40.1397 44.7777 41.3396C45.6561 42.0285 46.7617 42.6592 48.3062 43.3335V53.7575C46.7818 53.693 45.8435 53.4068 44.2066 52.3359C43.5975 51.9376 42.7805 52.108 42.382 52.7174C41.9835 53.3265 42.1542 54.1435 42.7634 54.542C44.9152 55.9497 46.3536 56.3169 48.3062 56.3928V58.4851C48.3062 59.2132 48.8962 59.8033 49.6243 59.8033V59.8033ZM46.4047 39.2654C45.6522 38.6751 45.3272 37.5515 45.5569 36.3332C45.77 35.2033 46.5468 33.8304 48.0887 33.366C48.162 33.3438 48.2341 33.3249 48.3062 33.3055V40.4255C47.5169 40.0314 46.898 39.6523 46.4047 39.2654V39.2654ZM51.7355 44.6624C55.0155 45.8217 54.8123 48.638 54.6719 49.4735C54.3812 51.2034 53.1113 53.0501 50.9423 53.606V44.3767C51.199 44.4706 51.4611 44.5654 51.7355 44.6624V44.6624Z" fill="#193769"/>
</g>
<defs>
<clipPath id="clip0">
<rect width="90" height="90" fill="white" transform="translate(0 -0.000976562)"/>
</clipPath>
</defs>
</svg>
