<svg width="90" height="90" viewBox="0 0 90 90" fill="none" xmlns="http://www.w3.org/2000/svg">
<g clip-path="url(#clip0)">
<path d="M74.3669 42.3621C74.3669 38.7273 71.4098 35.7703 67.7751 35.7703C66.1013 35.7703 64.5712 36.3973 63.4075 37.429C62.4732 34.9232 60.0557 33.1336 57.2283 33.1336C55.5545 33.1336 54.0243 33.7606 52.8606 34.7923C51.9263 32.2865 49.5088 30.4969 46.6814 30.4969C45.1985 30.4969 43.8288 30.9893 42.7263 31.8188V26.6545C46.8104 23.9898 49.3181 19.403 49.3181 14.5008C49.3181 11.1618 48.155 7.9018 46.0431 5.3215L44.0028 6.9916C45.7302 9.10203 46.6816 11.7688 46.6816 14.5008C46.6816 17.8987 45.2085 21.1118 42.7265 23.3407V20.962L41.3825 14.2422C40.6129 10.3951 38.0354 7.90918 34.816 7.90918C32.7609 7.90918 30.6865 8.88248 29.4021 10.449C28.3579 11.7228 27.9487 13.2535 28.2498 14.7594L29.5425 21.2232V25.1352C25.5363 23.1603 22.9506 19.0875 22.9506 14.501C22.9506 7.9584 28.2734 2.63574 34.816 2.63574C37.5481 2.63574 40.2151 3.58707 42.3253 5.31465L43.9956 3.27436C41.4155 1.16217 38.1555 -0.000976562 34.816 -0.000976562C26.8195 -0.000976562 20.3138 6.50451 20.3138 14.501C20.3138 20.5413 23.9845 25.8522 29.5425 28.0117V40.4331L24.2691 45.7763V66.5502L34.678 79.7339V89.999H47.9307V87.3623H37.3149V80.8313L41.1234 81.4633L41.5549 78.8621L36.7155 78.0589L26.9062 65.6345V46.8583L29.5429 44.1867V61.0747H32.1796V20.962L30.8356 14.2422C30.6519 13.3234 31.0636 12.5813 31.4413 12.1205C32.2255 11.1639 33.5502 10.5459 34.816 10.5459C37.1296 10.5459 38.3893 12.7224 38.7967 14.7596L40.0894 21.2234V46.3174H42.7261V37.0889C42.7261 34.9079 44.5003 33.1338 46.6812 33.1338C48.8619 33.1338 50.6363 34.9079 50.6363 37.0889V47.6357H53.273V39.7256C53.273 37.5447 55.0472 35.7705 57.2281 35.7705C59.4088 35.7705 61.1832 37.5447 61.1832 39.7256V48.9541H63.8199V42.3623C63.8199 40.1814 65.594 38.4072 67.775 38.4072C69.9559 38.4072 71.73 40.1814 71.73 42.3623V64.542L66.7994 78.102L62.2168 78.8624L62.6485 81.4636L66.4568 80.8317V87.3623H55.8408V89.999H69.0935V79.5084L74.3669 65.0063V42.3621Z" fill="#193769"/>
<path d="M50.5675 87.3623H53.2042V89.999H50.5675V87.3623Z" fill="#193769"/>
<path d="M66.4568 58.1821H69.0935V60.8188H66.4568V58.1821Z" fill="#193769"/>
<path d="M66.4568 52.9087H69.0935V55.5454H66.4568V52.9087Z" fill="#193769"/>
<path d="M49.1573 28.1173C51.5027 25.6468 53.177 22.6035 53.9988 19.3164L51.4408 18.6768C50.7289 21.5237 49.2782 24.1603 47.2451 26.3016L49.1573 28.1173Z" fill="#193769"/>
<path d="M20.4748 0.884766C18.1292 3.35537 16.4551 6.3985 15.6333 9.68561L18.1913 10.3253C18.903 7.4785 20.3539 4.84178 22.3872 2.70041L20.4748 0.884766Z" fill="#193769"/>
</g>
<defs>
<clipPath id="clip0">
<rect width="90" height="90" fill="white" transform="translate(0 -0.000976562)"/>
</clipPath>
</defs>
</svg>
