<svg width="90" height="90" viewBox="0 0 90 90" fill="none" xmlns="http://www.w3.org/2000/svg">
<path d="M46.5 73.499H43.5V76.499H46.5V73.499Z" fill="#193769"/>
<path d="M88.5 76.499H87V22.499C87 19.1853 84.3137 16.499 81 16.499H75V7.49902C75 4.18534 72.3137 1.49902 69 1.49902H33C29.6863 1.49902 27 4.18534 27 7.49902V8.99902H24C20.6863 8.99902 18 11.6853 18 14.999V16.499H9C5.68631 16.499 3 19.1853 3 22.499V76.499H1.5C0.671625 76.499 0 77.1706 0 77.999V82.499C0 85.8127 2.68631 88.499 6 88.499H84C87.3137 88.499 90 85.8127 90 82.499V77.999C90 77.1706 89.3284 76.499 88.5 76.499ZM30 7.49902C30 5.84209 31.3431 4.49902 33 4.49902H69C70.6569 4.49902 72 5.84209 72 7.49902V31.499C72 33.156 70.6569 34.499 69 34.499H66C65.5279 34.499 65.0833 34.7214 64.8 35.099L61.5 39.4985L58.2 35.099C57.9167 34.7214 57.4721 34.499 57 34.499H33C31.3431 34.499 30 33.156 30 31.499V7.49902ZM21 14.999C21 13.3421 22.3431 11.999 24 11.999H27V31.499C27 34.8127 29.6863 37.499 33 37.499H52.5V38.999C52.5 40.656 51.1569 41.999 49.5 41.999H39C38.5279 41.999 38.0833 42.2214 37.8 42.599L34.5 46.9985L31.2 42.599C30.9167 42.2214 30.4721 41.999 30 41.999H24C22.3431 41.999 21 40.656 21 38.999V14.999ZM24 44.999H29.25L33.3 50.399C33.7971 51.0618 34.7372 51.1961 35.4 50.699C35.5136 50.6137 35.6147 50.5126 35.7 50.399L39.75 44.999H49.5C52.8137 44.999 55.5 42.3127 55.5 38.999V37.499H56.25L60.3 42.899C60.7971 43.5618 61.7372 43.6961 62.4 43.199C62.5136 43.1137 62.6147 43.0126 62.7 42.899L66.75 37.499H69C72.3137 37.499 75 34.8127 75 31.499V25.499H78V67.499H72V65.999C71.9992 63.5053 70.7591 61.175 68.691 59.7815C71.0623 57.4668 71.1082 53.6683 68.7937 51.2968C66.4791 48.9255 62.6805 48.8795 60.309 51.1942C57.9377 53.5089 57.8918 57.3075 60.2063 59.679C60.24 59.7136 60.2743 59.7478 60.309 59.7815C58.2409 61.175 57.0008 63.5053 57 65.999V67.499H33V65.999C32.9992 63.5053 31.7591 61.175 29.691 59.7815C32.0623 57.4668 32.1082 53.6683 29.7937 51.2968C27.4791 48.9255 23.6805 48.8795 21.309 51.1942C18.9377 53.5089 18.8917 57.3075 21.2062 59.679C21.24 59.7136 21.2743 59.7478 21.309 59.7815C19.2409 61.175 18.0008 63.5053 18 65.999V67.499H12V25.499H18V38.999C18 42.3127 20.6863 44.999 24 44.999ZM64.5 61.499C66.9853 61.499 69 63.5137 69 65.999V67.499H60V65.999C60 63.5137 62.0147 61.499 64.5 61.499ZM61.5 55.499C61.5 53.8421 62.8431 52.499 64.5 52.499C66.1569 52.499 67.5 53.8421 67.5 55.499C67.5 57.156 66.1569 58.499 64.5 58.499C62.8431 58.499 61.5 57.156 61.5 55.499ZM25.5 61.499C27.9853 61.499 30 63.5137 30 65.999V67.499H21V65.999C21 63.5137 23.0147 61.499 25.5 61.499ZM22.5 55.499C22.5 53.8421 23.8431 52.499 25.5 52.499C27.1569 52.499 28.5 53.8421 28.5 55.499C28.5 57.156 27.1569 58.499 25.5 58.499C23.8431 58.499 22.5 57.156 22.5 55.499ZM6 22.499C6 20.8421 7.34306 19.499 9 19.499H18V22.499H10.5C9.67162 22.499 9 23.1706 9 23.999V68.999C9 69.8274 9.67162 70.499 10.5 70.499H79.5C80.3284 70.499 81 69.8274 81 68.999V23.999C81 23.1706 80.3284 22.499 79.5 22.499H75V19.499H81C82.6569 19.499 84 20.8421 84 22.499V76.499H58.5C58.1021 76.499 57.7207 76.6573 57.4395 76.9385L54.879 79.499H35.121L32.5605 76.9385C32.2793 76.6573 31.8979 76.499 31.5 76.499H6V22.499ZM87 82.499C87 84.156 85.6569 85.499 84 85.499H6C4.34306 85.499 3 84.156 3 82.499V79.499H30.879L33.4395 82.0595C33.7207 82.3408 34.1021 82.499 34.5 82.499H55.5C55.8979 82.499 56.2793 82.3408 56.5605 82.0595L59.121 79.499H87V82.499Z" fill="#193769"/>
<path d="M67.5 8.99902H43.5V11.999H67.5V8.99902Z" fill="#193769"/>
<path d="M67.5 14.999H34.5V17.999H67.5V14.999Z" fill="#193769"/>
<path d="M67.5 20.999H34.5V23.999H67.5V20.999Z" fill="#193769"/>
<path d="M61.5 26.999H34.5V29.999H61.5V26.999Z" fill="#193769"/>
<path d="M40.5 8.99902H37.5V11.999H40.5V8.99902Z" fill="#193769"/>
</svg>
