<svg width="90" height="90" viewBox="0 0 90 90" fill="none" xmlns="http://www.w3.org/2000/svg">
<g clip-path="url(#clip0)">
<path d="M36.9772 79.7838L36.7128 81.0754L36.9676 79.7825C36.2534 79.6417 35.5599 80.1066 35.4192 80.8207C35.2784 81.5355 35.7433 82.2283 36.4581 82.3691C36.4601 82.3697 36.48 82.3732 36.4821 82.3739C36.5659 82.3897 36.649 82.3979 36.7313 82.3979C37.3514 82.3979 37.9041 81.9584 38.0243 81.3267C38.1616 80.6112 37.6927 79.9205 36.9772 79.7838Z" fill="#193769"/>
<path d="M47.0571 80.2075L47.1883 81.519L47.053 80.2082C46.3286 80.2823 45.8019 80.9298 45.8768 81.6543C45.9461 82.3327 46.5188 82.838 47.1862 82.838C47.2315 82.838 47.2775 82.8353 47.3229 82.8312L47.3592 82.827C48.0802 82.7426 48.5918 82.0923 48.5114 81.3714C48.4304 80.6511 47.7781 80.132 47.0571 80.2075V80.2075Z" fill="#193769"/>
<path d="M42.0102 80.3734C42.0102 80.3734 41.9917 80.3727 41.991 80.3727C41.2645 80.3398 40.6576 80.9042 40.6246 81.6313C40.5923 82.3585 41.1636 82.9744 41.8908 83.0074C41.9114 83.0087 41.9313 83.0087 41.9519 83.0087C42.6523 83.0087 43.2359 82.4574 43.2675 81.7501C43.3005 81.023 42.7381 80.4064 42.0102 80.3734V80.3734Z" fill="#193769"/>
<path d="M32.1074 78.444L32.091 78.4379C31.4057 78.192 30.6586 78.5505 30.4128 79.2358C30.1663 79.921 30.5302 80.6791 31.2155 80.9256C31.3631 80.9785 31.5135 81.0032 31.6611 81.0032C32.2015 81.0032 32.7089 80.6688 32.9019 80.1305C33.1484 79.4452 32.7927 78.6899 32.1074 78.444V78.444Z" fill="#193769"/>
<path d="M52.0325 79.2846L52.3573 80.5625L52.0284 79.286C51.3232 79.4673 50.8988 80.1862 51.0801 80.8914C51.2332 81.486 51.7688 81.8815 52.3559 81.8815C52.4651 81.8815 52.5756 81.8678 52.6862 81.8389C52.6917 81.8376 52.715 81.8314 52.7212 81.83C53.4209 81.6391 53.8301 80.9202 53.6434 80.2191C53.4566 79.5188 52.7349 79.102 52.0325 79.2846V79.2846Z" fill="#193769"/>
<path d="M56.7985 77.6223L57.3211 78.8322L56.7944 77.6237C56.127 77.9148 55.8214 78.6914 56.1119 79.3588C56.3282 79.8553 56.813 80.1512 57.3218 80.1512C57.4969 80.1512 57.6761 80.1155 57.847 80.0414C57.8525 80.0386 57.8738 80.0297 57.8793 80.027C58.5406 79.7283 58.8324 78.9537 58.5371 78.2911C58.2419 77.6278 57.4632 77.3305 56.7985 77.6223V77.6223Z" fill="#193769"/>
<path d="M27.0717 17.5243C27.2832 17.5243 27.4981 17.4735 27.6965 17.3678C28.3392 17.0251 28.5816 16.2266 28.239 15.5839C27.8963 14.9418 27.0985 14.6981 26.4558 15.0414L26.44 15.0497C25.798 15.3923 25.5624 16.1867 25.9051 16.8294C26.1413 17.273 26.6 17.5243 27.0717 17.5243Z" fill="#193769"/>
<path d="M11.8219 32.2493C12.0176 32.3516 12.227 32.4004 12.4337 32.4004C12.9082 32.4004 13.3668 32.1436 13.6024 31.6938L13.6257 31.6478C13.9471 30.9941 13.6779 30.2038 13.0242 29.8831C12.3753 29.5632 11.5912 29.8268 11.2657 30.4716C10.9292 31.1157 11.1778 31.9115 11.8219 32.2493Z" fill="#193769"/>
<path d="M9.96598 37.209C10.1061 37.2564 10.2482 37.2791 10.389 37.2791C10.9383 37.2791 11.4512 36.9323 11.6373 36.383L11.6544 36.3308C11.8687 35.6352 11.478 34.8971 10.7817 34.6836C10.0916 34.4707 9.35898 34.8538 9.13857 35.5405C8.90717 36.2292 9.27727 36.9763 9.96598 37.209Z" fill="#193769"/>
<path d="M14.4229 27.6372C14.6571 27.8075 14.9283 27.8899 15.1975 27.8899C15.6046 27.8899 16.007 27.701 16.2645 27.3467L16.2817 27.3234C16.7046 26.7315 16.5666 25.9103 15.9761 25.4873C15.3849 25.0636 14.5609 25.1996 14.1366 25.7901L15.1988 26.5715L14.1325 25.7956C13.704 26.3847 13.8345 27.2094 14.4229 27.6372Z" fill="#193769"/>
<path d="M22.5961 20.3718C22.8728 20.3718 23.1516 20.2846 23.3898 20.1033C23.9776 19.6735 24.1046 18.8488 23.6748 18.2611C23.2443 17.6733 22.4196 17.5463 21.8325 17.9761L21.7996 18.0001C21.22 18.4403 21.1047 19.2691 21.5448 19.8493C21.8044 20.1912 22.1978 20.3718 22.5961 20.3718Z" fill="#193769"/>
<path d="M8.78899 57.2026C8.9634 57.7691 9.48388 58.1323 10.0469 58.1323C10.1753 58.1323 10.3065 58.1131 10.4356 58.0733C11.1277 57.8611 11.5184 57.1278 11.311 56.4343C11.1126 55.7421 10.3951 55.3356 9.69674 55.5258C8.9943 55.7174 8.58025 56.4425 8.77183 57.1449C8.77595 57.1587 8.78487 57.1889 8.78899 57.2026Z" fill="#193769"/>
<path d="M18.6135 23.8461C18.9561 23.8461 19.2988 23.7136 19.5577 23.4499C20.0719 22.935 20.0719 22.1 19.5577 21.5857C19.0427 21.0707 18.2077 21.0707 17.6927 21.5857L17.6708 21.6077C17.1613 22.1275 17.1716 22.9611 17.6913 23.4705C17.9475 23.7219 18.2805 23.8461 18.6135 23.8461Z" fill="#193769"/>
<path d="M10.2461 51.4549C10.1534 50.7387 9.49905 50.2306 8.7822 50.3157C8.05985 50.4022 7.54349 51.058 7.62932 51.781L7.63687 51.8339C7.733 52.4889 8.29536 52.9586 8.93875 52.9586C9.00192 52.9586 9.06647 52.9538 9.1317 52.9442C9.84924 52.8398 10.3471 52.1724 10.2461 51.4549Z" fill="#193769"/>
<path d="M8.58986 47.679C8.60359 47.679 8.61664 47.6797 8.62968 47.6797C9.33967 47.6797 9.92607 47.1146 9.94667 46.3998L9.94804 46.3435C9.94804 45.615 9.35753 45.0251 8.62968 45.0251C7.90664 45.0251 7.32025 45.606 7.31132 46.3263C7.2921 47.0528 7.86407 47.6577 8.58986 47.679V47.679Z" fill="#193769"/>
<path d="M8.87899 42.3917C8.95795 42.4055 9.03554 42.4123 9.11313 42.4123C9.73935 42.4123 10.2949 41.964 10.4095 41.3261C10.413 41.3068 10.4157 41.2876 10.4184 41.2684C10.5249 40.5481 10.0271 39.8779 9.30608 39.7722C8.59403 39.6664 7.9273 40.156 7.81263 40.866C7.68766 41.5815 8.16419 42.2633 8.87899 42.3917Z" fill="#193769"/>
<path d="M71.0685 28.0533C71.3239 28.4241 71.7345 28.6226 72.1534 28.6226C72.4109 28.6226 72.6718 28.547 72.8998 28.3898C73.4992 27.9778 73.6509 27.1566 73.239 26.5564L72.1431 27.2898L73.2348 26.5503C72.8256 25.9474 72.0057 25.7901 71.4035 26.1987C70.8007 26.6073 70.6434 27.4271 71.052 28.03L71.0685 28.0533Z" fill="#193769"/>
<path d="M77.8009 41.3199C77.0772 41.4009 76.5567 42.0539 76.6384 42.7776L76.6453 42.8346C76.7394 43.4917 77.3038 43.9662 77.9493 43.9662C78.0111 43.9662 78.0742 43.9621 78.1374 43.9532C78.8522 43.8508 79.3507 43.1924 79.258 42.4782C79.1749 41.7566 78.5199 41.2388 77.8009 41.3199Z" fill="#193769"/>
<path d="M75.5762 37.5998L75.5817 37.617C75.7506 38.1917 76.2759 38.5639 76.8458 38.5639C76.9687 38.5639 77.0937 38.5467 77.218 38.5096C77.917 38.3043 78.3166 37.5717 78.1113 36.8727L78.1058 36.8555C77.9005 36.1565 77.1678 35.7569 76.4688 35.9629C75.7705 36.1682 75.3709 36.9008 75.5762 37.5998V37.5998Z" fill="#193769"/>
<path d="M73.7139 32.6703C73.9439 33.1379 74.4143 33.4105 74.9032 33.4105C75.0975 33.4105 75.2953 33.3672 75.4813 33.2752C76.1343 32.9539 76.4056 32.1684 76.0835 31.5147L74.8888 32.0716L76.0822 31.5119C75.7732 30.8528 74.9883 30.5692 74.3291 30.8782C73.67 31.1872 73.3857 31.972 73.6947 32.6312L73.7139 32.6703Z" fill="#193769"/>
<path d="M67.7477 23.9361C68.0059 24.1998 68.3472 24.3316 68.6891 24.3316C69.0221 24.3316 69.3552 24.2067 69.612 23.9547C70.1283 23.4493 70.14 22.6232 69.6422 22.1028C69.1485 21.5706 68.3163 21.5383 67.7821 22.0314C67.2472 22.5251 67.2142 23.3593 67.7079 23.8942L67.7477 23.9361Z" fill="#193769"/>
<path d="M78.2295 46.8247C77.5051 46.8061 76.8988 47.374 76.8733 48.0984C76.8404 48.8201 77.3945 49.4346 78.1169 49.4751C78.1423 49.4765 78.1663 49.4772 78.1917 49.4772C78.8859 49.4772 79.4675 48.934 79.5066 48.2316L79.5087 48.1774C79.5293 47.4502 78.9566 46.8459 78.2295 46.8247V46.8247Z" fill="#193769"/>
<path d="M59.317 17.4626L59.3486 17.4797C59.545 17.5841 59.7558 17.6336 59.9632 17.6336C60.4322 17.6336 60.886 17.3809 61.1243 16.938C61.4676 16.2987 61.2259 15.4995 60.5887 15.1534L59.9508 16.307L60.5846 15.1506C59.946 14.8005 59.1447 15.0346 58.7945 15.6732C58.445 16.3111 58.6785 17.1131 59.317 17.4626V17.4626Z" fill="#193769"/>
<path d="M63.7763 20.354L63.7969 20.3698C64.0351 20.5504 64.3146 20.6376 64.5927 20.6376C64.9909 20.6376 65.3844 20.4577 65.6439 20.1157C66.0841 19.5355 65.9701 18.7088 65.3906 18.2686L65.3816 18.2625C64.8042 17.8189 63.9768 17.9274 63.5332 18.5048C63.0896 19.0823 63.1988 19.9104 63.7763 20.354V20.354Z" fill="#193769"/>
<path d="M89.1863 66.7835L82.9976 60.5838C82.4709 60.0565 81.7712 59.766 81.0262 59.766C80.2819 59.766 79.5815 60.0565 79.0556 60.5838L78.912 60.7273L78.5056 60.3208C78.0036 59.8175 77.615 59.2318 77.3513 58.5939C77.328 58.5095 77.2971 58.4271 77.2572 58.3495C77.0554 57.7823 76.9503 57.1787 76.9503 56.5587V54.805C77.0705 54.8682 77.2016 54.9142 77.3424 54.9382C77.4179 54.9513 77.4928 54.9574 77.5669 54.9574C78.1924 54.9574 78.7459 54.5111 78.8619 53.8767C79.0027 53.1639 78.5406 52.4711 77.8271 52.3283C77.5134 52.2658 77.203 52.32 76.9421 52.4615C76.861 50.5883 76.0954 48.8387 74.7633 47.5039L68.7593 41.4896C67.4121 40.1403 65.6207 39.3974 63.7152 39.3974C62.2403 39.3974 60.8354 39.8444 59.6503 40.6718L59.0131 40.0311V24.9524C59.0131 23.1349 58.3532 21.3812 57.1557 20.0154C56.3036 19.0445 55.8346 17.7976 55.8346 16.5039V15.3991H55.9252C57.4619 15.3991 58.7123 14.1487 58.7123 12.6113V3.84149C58.7123 2.30409 57.4619 1.05371 55.9252 1.05371H31.2987C29.762 1.05371 28.5116 2.30409 28.5116 3.84149V12.6113C28.5116 14.1487 29.762 15.3991 31.2987 15.3991H31.5019V15.9773C31.5019 17.3986 30.9492 18.7348 29.946 19.7394L27.288 22.4022C25.8776 23.8153 25.101 25.6933 25.101 27.6914V36.1969C25.101 37.3525 25.3784 38.4436 25.8666 39.4104C24.1184 39.5114 22.489 40.2399 21.2407 41.4896L15.2367 47.5039C13.8263 48.917 13.0497 50.7957 13.0497 52.7931V56.5587C13.0497 57.9801 12.4976 59.3163 11.4944 60.3208L11.0928 60.7232C11.0907 60.7246 11.0893 60.726 11.088 60.7273L10.9451 60.5838C10.4185 60.0565 9.71878 59.766 8.97377 59.766C8.22945 59.766 7.52907 60.0565 7.0031 60.5838L0.813675 66.7835C-0.271225 67.8705 -0.271225 69.6393 0.813675 70.7263L2.93335 72.8487C3.44765 73.3643 4.28261 73.365 4.79759 72.8507C5.31258 72.3358 5.31395 71.5015 4.79897 70.9858L2.67998 68.8627C2.62024 68.803 2.62024 68.7061 2.67998 68.6464L8.8694 62.4467C8.92708 62.389 9.02115 62.3883 9.07883 62.4467L10.1548 63.5247H10.1555L24.8476 78.2423L26.4935 79.8916C26.5533 79.9513 26.5533 80.0482 26.4935 80.1079L20.3048 86.3076C20.2464 86.366 20.1524 86.366 20.0947 86.3076L8.53157 74.7246C8.01727 74.2089 7.18231 74.2082 6.66733 74.7225C6.15166 75.2375 6.15097 76.0718 6.66527 76.5875L18.2291 88.1705C18.755 88.6978 19.4554 88.9883 20.2004 88.9883C20.9447 88.9883 21.6444 88.6978 22.1711 88.1705L28.3598 81.9708C29.4447 80.8845 29.4447 79.1157 28.3598 78.0287L28.2925 77.9614L29.0733 77.1794C29.9851 76.2654 31.1964 75.7161 32.4838 75.633C34.2959 75.5156 36.0008 74.7424 37.2842 73.4564L42.9696 67.7586C44.6093 67.328 45.8858 65.9925 46.2325 64.3199C46.8169 64.5979 47.4699 64.7545 48.1593 64.7545C50.6387 64.7545 52.6561 62.7351 52.6561 60.2522V57.1217C53.2233 57.3806 53.8529 57.5262 54.5162 57.5262C56.9957 57.5262 59.0124 55.5068 59.0124 53.0238V43.7692L63.0677 47.8445C63.3252 48.1033 63.6637 48.2324 64.0022 48.2324C64.3387 48.2324 64.6751 48.1047 64.9326 47.8486C65.4483 47.335 65.4504 46.5007 64.9368 45.9844L61.5557 42.5868C62.2101 42.2263 62.9475 42.0341 63.7152 42.0341C64.9155 42.0341 66.0443 42.5024 66.893 43.3531L72.897 49.3668C73.8103 50.2821 74.3136 51.4988 74.3136 52.7931V56.5587C74.3136 58.6839 75.1396 60.6813 76.6393 62.1837L77.0485 62.5936L75.1362 64.5094L63.5703 76.0951L62.9256 75.449C62.9187 75.4428 62.9125 75.436 62.9057 75.4298L62.7924 75.3158C61.4273 73.9487 59.6139 73.1268 57.6871 73.0018C56.515 72.9256 55.4123 72.4257 54.578 71.5907L50.246 67.282C49.7296 66.7684 48.8947 66.7705 48.381 67.2868C47.8681 67.8032 47.8702 68.6382 48.3865 69.1511L52.7158 73.4564C53.9992 74.7424 55.7041 75.5156 57.5169 75.633C58.8036 75.7161 60.0149 76.2654 60.9267 77.1787L60.9906 77.2425C61.0249 77.2817 61.0613 77.3181 61.0998 77.3524L61.7075 77.9608L61.6402 78.0287C60.5553 79.1157 60.5553 80.8838 61.6402 81.9708L67.8289 88.1705C68.3556 88.6978 69.0553 88.9883 69.8003 88.9883C70.5446 88.9883 71.245 88.6978 71.7716 88.1705L89.1863 70.7256C90.2712 69.6386 90.2712 67.8705 89.1863 66.7835V66.7835ZM77.834 53.6741L77.8093 53.67L77.569 53.6212L77.834 53.6741ZM35.4179 71.5935C34.5877 72.4257 33.485 72.9256 32.3135 73.0018C30.3861 73.1268 28.5727 73.9487 27.2076 75.3158L26.4297 76.0951L25.7293 75.3934C25.7204 75.3845 25.7114 75.3748 25.7025 75.3666L12.9515 62.5936L13.3607 62.1837C14.8604 60.6813 15.6864 58.6839 15.6864 56.5587V52.7931C15.6864 51.4988 16.189 50.2821 17.103 49.3668L23.107 43.3531C23.9557 42.5024 25.0845 42.0341 26.2848 42.0341C27.0545 42.0341 27.7947 42.2277 28.4512 42.591L25.0646 45.983C24.5503 46.498 24.551 47.3329 25.066 47.8472C25.3235 48.104 25.6606 48.2324 25.9978 48.2324C26.3356 48.2324 26.6734 48.1033 26.9309 47.8459L30.976 43.7933V60.2522C30.976 62.7351 32.9933 64.7545 35.4728 64.7545C36.1718 64.7545 36.8337 64.5938 37.4242 64.3082C37.692 65.6149 38.527 66.7162 39.6586 67.3438L35.4179 71.5935ZM56.3763 53.0245C56.3763 54.0531 55.5414 54.8902 54.5162 54.8902C53.4904 54.8902 52.6561 54.0531 52.6561 53.0245V38.3186C52.6561 37.5908 52.0663 37.0003 51.3377 37.0003C50.6092 37.0003 50.0194 37.5908 50.0194 38.3186V60.2529C50.0194 61.2814 49.1851 62.1178 48.1593 62.1178C47.2385 62.1178 46.4742 61.4435 46.3266 60.5612V38.3035C46.3266 37.575 45.7368 36.9852 45.0082 36.9852C44.7741 36.9852 44.5537 37.047 44.3628 37.1541C43.946 37.3759 43.6624 37.814 43.6624 38.3186V60.2522C43.6624 60.4197 43.672 60.5838 43.6899 60.7466V63.4032C43.6899 64.4318 42.8556 65.2688 41.8298 65.2688C40.8046 65.2688 39.9703 64.4318 39.9703 63.4032V38.2878C39.9703 37.5599 39.3798 36.9694 38.652 36.9694C37.9234 36.9694 37.3329 37.5599 37.3329 38.2878V60.2522C37.3329 61.2808 36.4986 62.1178 35.4735 62.1178C34.4476 62.1178 33.6134 61.2808 33.6134 60.2522V35.7286C33.6134 35.0001 33.0228 34.4096 32.295 34.4096C31.5665 34.4096 30.9766 35.0001 30.9766 35.7286V40.2646C30.8661 40.3003 30.759 40.3504 30.6594 40.4164C28.9545 39.7757 27.7377 38.1264 27.7377 36.1969V27.6914C27.7377 26.3971 28.241 25.1804 29.1543 24.2651L31.8123 21.6023C33.3126 20.0999 34.1386 18.1024 34.1386 15.9773V15.3991H36.7891C37.5176 15.3991 38.1075 14.8086 38.1075 14.0807C38.1075 13.3522 37.5176 12.7624 36.7891 12.7624H31.2987C31.2156 12.7624 31.1483 12.6944 31.1483 12.6113V3.84149C31.1483 3.75841 31.2156 3.69043 31.2987 3.69043H55.9245C56.0083 3.69043 56.0756 3.75841 56.0756 3.84149V12.6113C56.0756 12.6951 56.0083 12.7624 55.9245 12.7624H42.9785C42.2507 12.7624 41.6602 13.3522 41.6602 14.0807C41.6602 14.8086 42.2507 15.3991 42.9785 15.3991H53.1979V16.5039C53.1979 18.4375 53.8989 20.3018 55.1727 21.7547C55.9486 22.6391 56.3763 23.7748 56.3763 24.9524V53.0245ZM87.32 68.8627L69.9053 86.3076C69.8765 86.3371 69.8415 86.3516 69.8003 86.3516C69.7598 86.3516 69.7247 86.3371 69.6952 86.3076L63.5065 80.1079C63.4467 80.0482 63.4467 79.9513 63.5065 79.8916L64.5028 78.8932L64.5035 78.8925L74.613 68.7659L80.9212 62.4467C80.9789 62.3883 81.0729 62.3883 81.1306 62.4467L87.32 68.6464C87.3798 68.7061 87.3798 68.803 87.32 68.8627V68.8627Z" fill="#193769"/>
<path d="M35.4728 6.82007C34.6989 6.82007 34.0693 7.4511 34.0693 8.22632C34.0693 9.00223 34.6989 9.63257 35.4728 9.63257C36.2473 9.63257 36.877 9.00223 36.877 8.22632C36.877 7.4511 36.2473 6.82007 35.4728 6.82007Z" fill="#193769"/>
<path d="M81.4572 66.9167C80.6827 66.9167 80.053 67.5478 80.053 68.323C80.053 69.0982 80.6827 69.7292 81.4572 69.7292C82.2311 69.7292 82.8607 69.0982 82.8607 68.323C82.8607 67.5478 82.2311 66.9167 81.4572 66.9167Z" fill="#193769"/>
<path d="M21.9699 80.3667C21.9699 79.5915 21.3403 78.9604 20.5664 78.9604C19.7919 78.9604 19.1622 79.5915 19.1622 80.3667C19.1622 81.1419 19.7919 81.7729 20.5664 81.7729C21.3403 81.7729 21.9699 81.1419 21.9699 80.3667Z" fill="#193769"/>
</g>
<defs>
<clipPath id="clip0">
<rect width="90" height="90" fill="white" transform="translate(0 -0.000976562)"/>
</clipPath>
</defs>
</svg>
