<svg width="90" height="90" viewBox="0 0 90 90" fill="none" xmlns="http://www.w3.org/2000/svg">
<g clip-path="url(#clip0)">
<path d="M75.0001 -0.000976562C66.7292 -0.000976562 60.0001 6.72811 60.0001 14.999C60.0001 22.1733 70.6294 36.6937 73.1199 39.9986C73.1192 41.0661 73.1199 42.1143 73.0941 43.0763C73.0666 44.1108 73.8833 44.9734 74.9196 45.0008C74.9361 45.0008 74.9526 45.0008 74.9709 45.0008C75.9816 45.0008 76.8166 44.1932 76.844 43.1753C76.8698 42.1881 76.8691 41.1106 76.8698 40.0126C79.3438 36.7304 90 22.1817 90 14.999C90 6.72811 83.2709 -0.000976562 75.0001 -0.000976562ZM75.0001 36.2356C70.8783 30.5649 63.7501 19.7727 63.7501 14.999C63.7501 8.79529 68.7964 3.74896 75.0001 3.74896C81.2037 3.74896 86.2501 8.79529 86.2501 14.999C86.2501 19.7727 79.1218 30.5647 75.0001 36.2356Z" fill="#193769"/>
<path d="M75.0001 11.249C72.9329 11.249 71.2501 12.9318 71.2501 14.999C71.2501 17.0662 72.9329 18.7489 75.0001 18.7489C77.0672 18.7489 78.75 17.0663 78.75 14.999C78.75 12.9318 77.0672 11.249 75.0001 11.249Z" fill="#193769"/>
<path d="M22.5 41.249C16.2963 41.249 11.25 46.2953 11.25 52.499C11.25 58.7027 16.2963 63.749 22.5 63.749C28.7037 63.749 33.75 58.7027 33.75 52.499C33.75 46.2953 28.7037 41.249 22.5 41.249ZM22.5 59.9989C18.3637 59.9989 14.9999 56.6353 14.9999 52.4988C14.9999 48.3624 18.3637 44.999 22.5 44.999C26.6363 44.999 30.0001 48.3625 30.0001 52.499C30.0001 56.6355 26.6363 59.9989 22.5 59.9989Z" fill="#193769"/>
<path d="M50.9014 67.576C49.9309 67.1988 48.8506 67.6805 48.4753 68.6473C47.6349 70.8189 46.5839 73.3512 45.1666 75.6711C44.6264 76.5555 44.9066 77.7091 45.7892 78.2493C46.0951 78.4362 46.4318 78.524 46.7651 78.524C47.3969 78.524 48.0139 78.2054 48.3674 77.6269C49.9385 75.0524 51.0718 72.3278 51.9726 70.0024C52.3462 69.0371 51.8665 67.9513 50.9014 67.576Z" fill="#193769"/>
<path d="M40.3289 81.2594C38.4502 82.7481 36.3153 83.8687 33.7994 84.6871C32.8143 85.0076 32.2759 86.066 32.5963 87.051C32.8546 87.8421 33.5888 88.3457 34.3798 88.3457C34.5721 88.3457 34.7679 88.3163 34.9602 88.2541C37.8661 87.3093 40.4552 85.9452 42.658 84.2C43.4693 83.5555 43.6066 82.3763 42.9639 81.5651C42.3156 80.756 41.1382 80.6113 40.3289 81.2594Z" fill="#193769"/>
<path d="M57.3926 54.039C54.2981 55.795 52.5788 58.8436 51.5533 60.9823C51.1047 61.9163 51.4983 63.0369 52.4322 63.4835C52.6941 63.6099 52.9706 63.6684 53.2415 63.6684C53.9409 63.6684 54.6112 63.2766 54.9334 62.6046C56.2352 59.8891 57.5647 58.254 59.2455 57.2981C60.1446 56.7873 60.4614 55.6428 59.9486 54.7419C59.4397 53.8412 58.2989 53.5245 57.3926 54.039Z" fill="#193769"/>
<path d="M74.304 49.3973C73.4525 48.8206 72.2825 49.0421 71.7001 49.899C71.0832 50.811 69.8196 52.0652 65.9982 52.4076C64.9672 52.5009 64.2055 53.4109 64.2989 54.4437C64.3868 55.4178 65.2052 56.1501 66.1648 56.1501C66.2216 56.1501 66.2783 56.1484 66.3351 56.1428C70.3946 55.7784 73.1649 54.4234 74.8057 52.0008C75.3863 51.1441 75.1609 49.9778 74.304 49.3973Z" fill="#193769"/>
<path d="M26.9429 86.2733C32.8591 79.9641 45 65.4495 45 52.499C45 39.883 35.116 29.999 22.5 29.999C9.884 29.999 0 39.883 0 52.499C0 69.2439 20.3467 88.6678 21.2128 89.4864C21.5735 89.8288 22.0368 89.9991 22.5 89.9991C23.866 89.9991 25.1641 89.9515 26.3946 89.8582C27.4273 89.7794 28.2018 88.8803 28.1231 87.8476C28.0668 87.1084 27.5885 86.532 26.9429 86.2733ZM22.5 85.48C18.0707 80.961 3.74994 65.353 3.74994 52.499C3.74994 41.985 11.9862 33.749 22.5 33.749C33.0138 33.749 41.2501 41.985 41.2501 52.499C41.2501 65.353 26.9293 80.9608 22.5 85.48Z" fill="#193769"/>
</g>
<defs>
<clipPath id="clip0">
<rect width="90" height="90" fill="white" transform="translate(0 -0.000976562)"/>
</clipPath>
</defs>
</svg>
