<svg width="31" height="31" viewBox="0 0 31 31" fill="none" xmlns="http://www.w3.org/2000/svg">
<circle cx="15.6797" cy="15.019" r="15" fill="#E1E5F1"/>
<path fill-rule="evenodd" clip-rule="evenodd" d="M17.1368 11.312C16.7463 10.9215 16.1131 10.9215 15.7226 11.312C15.3321 11.7025 15.3321 12.3357 15.7226 12.7262L17.0155 14.0191L8.92969 14.0191C8.3774 14.0191 7.92969 14.4668 7.92969 15.0191C7.92969 15.5714 8.3774 16.0191 8.92969 16.0191L17.0155 16.0191L15.7226 17.312C15.3321 17.7025 15.3321 18.3357 15.7226 18.7262C16.1131 19.1168 16.7463 19.1168 17.1368 18.7262L20.1368 15.7262C20.5273 15.3357 20.5273 14.7025 20.1368 14.312L17.1368 11.312ZM17.6298 8.51904C18.4864 8.51904 19.0686 8.51982 19.5187 8.55659C19.9571 8.59241 20.1814 8.65734 20.3378 8.73703C20.7141 8.92878 21.02 9.23474 21.2118 9.61106C21.2915 9.76746 21.3564 9.99167 21.3922 10.4301C21.429 10.8802 21.4298 11.4625 21.4298 12.319L21.4298 17.719C21.4298 18.5756 21.429 19.1579 21.3922 19.608C21.3564 20.0464 21.2915 20.2706 21.2118 20.427C21.02 20.8033 20.7141 21.1093 20.3378 21.3011C20.1814 21.3807 19.9571 21.4457 19.5187 21.4815C19.0686 21.5183 18.4864 21.519 17.6298 21.519L16.4298 21.519C15.7172 21.519 15.2328 21.5185 14.8564 21.4928C14.4889 21.4677 14.2979 21.4221 14.1644 21.3668C13.6744 21.1638 13.285 20.7745 13.082 20.2844C13.0267 20.1509 12.9811 19.9599 12.956 19.5924C12.9303 19.216 12.9298 18.7316 12.9298 18.019L10.9298 18.019L10.9298 18.0533L10.9298 18.0533C10.9298 18.7231 10.9298 19.276 10.9606 19.7286C10.9927 20.1979 11.0612 20.632 11.2343 21.0498C11.6402 22.0299 12.4189 22.8086 13.399 23.2146C13.8169 23.3876 14.2509 23.4562 14.7202 23.4882C15.1728 23.5191 15.7257 23.5191 16.3955 23.519L16.4298 23.519L17.6298 23.519L17.6711 23.519C18.4761 23.5191 19.1404 23.5191 19.6816 23.4748C20.2437 23.4289 20.7604 23.3304 21.2457 23.0831C21.9984 22.6996 22.6103 22.0877 22.9938 21.335C23.2411 20.8497 23.3397 20.333 23.3856 19.7709C23.4298 19.2297 23.4298 18.5653 23.4298 17.7604L23.4298 17.7604L23.4298 17.719L23.4298 12.319L23.4298 12.2778C23.4298 11.4728 23.4298 10.8084 23.3856 10.2672C23.3397 9.70512 23.2411 9.18842 22.9938 8.70308C22.6103 7.95043 21.9984 7.33851 21.2457 6.95502C20.7604 6.70773 20.2437 6.60916 19.6816 6.56324C19.1404 6.51902 18.476 6.51903 17.6711 6.51904L17.6298 6.51904L16.4298 6.51904L16.3955 6.51904C15.7257 6.51903 15.1728 6.51903 14.7202 6.54991C14.2509 6.58193 13.8169 6.65046 13.399 6.82352C12.4189 7.2295 11.6402 8.0082 11.2343 8.98831C11.0612 9.40612 10.9927 9.84022 10.9606 10.3095C10.9298 10.7621 10.9298 11.315 10.9298 11.9848L10.9298 12.019L12.9298 12.019C12.9298 11.3064 12.9303 10.8221 12.956 10.4456C12.9811 10.0782 13.0267 9.88718 13.082 9.75368C13.285 9.26362 13.6743 8.87427 14.1644 8.67128C14.2979 8.61599 14.4889 8.57034 14.8564 8.54527C15.2328 8.51958 15.7172 8.51904 16.4298 8.51904L17.6298 8.51904Z" fill="#363E57"/>
</svg>
