<svg width="31" height="31" viewBox="0 0 31 31" fill="none" xmlns="http://www.w3.org/2000/svg">
<circle cx="15.6797" cy="15.519" r="15" fill="#E1E5F1"/>
<path fill-rule="evenodd" clip-rule="evenodd" d="M13.867 12.3553C13.867 11.3544 14.6784 10.543 15.6793 10.543C16.6802 10.543 17.4916 11.3544 17.4916 12.3553C17.4916 13.3562 16.6802 14.1676 15.6793 14.1676C14.6784 14.1676 13.867 13.3562 13.867 12.3553ZM15.6793 8.54297C13.5738 8.54297 11.867 10.2498 11.867 12.3553C11.867 14.4608 13.5738 16.1676 15.6793 16.1676C17.7848 16.1676 19.4916 14.4608 19.4916 12.3553C19.4916 10.2498 17.7848 8.54297 15.6793 8.54297ZM11.7578 20.0891C11.7578 19.0882 12.5692 18.2768 13.5701 18.2768H17.7886C18.7895 18.2768 19.6009 19.0882 19.6009 20.0891C19.6009 20.3134 19.4191 20.4953 19.1948 20.4953H12.164C11.9397 20.4953 11.7578 20.3134 11.7578 20.0891ZM13.5701 16.2768C11.4646 16.2768 9.75781 17.9836 9.75781 20.0891C9.75781 21.418 10.8351 22.4953 12.164 22.4953H19.1948C20.5236 22.4953 21.6009 21.418 21.6009 20.0891C21.6009 17.9836 19.8941 16.2768 17.7886 16.2768H13.5701Z" fill="#363E57"/>
</svg>
