<svg width="25" height="25" viewBox="0 0 25 25" fill="none" xmlns="http://www.w3.org/2000/svg">
<path d="M11.968 3.43727C12.2247 2.8225 13.0956 2.8225 13.3523 3.43727L15.5538 8.71115C15.6564 8.95685 15.8815 9.12975 16.1454 9.16546L21.9477 9.95078C22.5979 10.0388 22.8297 10.8603 22.3213 11.2751L17.8411 14.9311C17.6196 15.1118 17.5201 15.4028 17.5846 15.6813L19.017 21.8712C19.1721 22.5413 18.4185 23.0493 17.8554 22.6541L13.091 19.3102C12.8324 19.1287 12.4879 19.1287 12.2293 19.3102L7.46486 22.6542C6.90182 23.0493 6.14823 22.5414 6.3033 21.8712L7.73561 15.6813C7.80005 15.4028 7.70058 15.1119 7.4791 14.9311L2.99896 11.2751C2.49063 10.8603 2.72238 10.0388 3.37255 9.95078L9.17495 9.16546C9.43878 9.12975 9.66391 8.95685 9.76647 8.71115L11.968 3.43727Z" stroke="white" stroke-width="2" stroke-miterlimit="3.3292" stroke-linecap="round" stroke-linejoin="round"/>
</svg>
