<svg width="24" height="25" viewBox="0 0 24 25" fill="none" xmlns="http://www.w3.org/2000/svg">
<path fill-rule="evenodd" clip-rule="evenodd" d="M10.6 5.4C7.45198 5.4 4.9 7.95198 4.9 11.1C4.9 14.248 7.45198 16.8 10.6 16.8C13.748 16.8 16.3 14.248 16.3 11.1C16.3 7.95198 13.748 5.4 10.6 5.4ZM3 11.1C3 6.90264 6.40264 3.5 10.6 3.5C14.7974 3.5 18.2 6.90264 18.2 11.1C18.2 15.2974 14.7974 18.7 10.6 18.7C6.40264 18.7 3 15.2974 3 11.1Z" fill="#676E86"/>
<path fill-rule="evenodd" clip-rule="evenodd" d="M14.6782 15.1782C15.0492 14.8073 15.6508 14.8073 16.0217 15.1782L21.7218 20.8782C22.0927 21.2492 22.0927 21.8508 21.7218 22.2218C21.3508 22.5927 20.7492 22.5927 20.3782 22.2218L14.6782 16.5218C14.3072 16.1508 14.3072 15.5492 14.6782 15.1782Z" fill="#676E86"/>
</svg>
