<svg width="57" height="57" viewBox="0 0 57 57" fill="none" xmlns="http://www.w3.org/2000/svg">
<rect width="57" height="57" rx="10" fill="#BAD4FF"/>
<path fill-rule="evenodd" clip-rule="evenodd" d="M27.2818 24.2383C27.2818 21.7474 29.3012 19.728 31.7921 19.728H32.0707C34.1175 19.728 35.8458 21.0914 36.3972 22.9595H39.7954C40.5017 22.9595 41.0742 23.532 41.0742 24.2383C41.0742 24.9446 40.5017 25.5172 39.7954 25.5172H36.3971C35.8458 27.3853 34.1175 28.7486 32.0707 28.7486H31.7921C29.3012 28.7486 27.2818 26.7293 27.2818 24.2383ZM32.0707 22.2857C33.135 22.2857 34.0004 23.1372 34.0229 24.196C34.0224 24.2101 34.0222 24.2242 34.0222 24.2383C34.0222 24.2525 34.0224 24.2666 34.0229 24.2806C34.0004 25.3395 33.135 26.1909 32.0707 26.1909H31.7921C30.7137 26.1909 29.8395 25.3167 29.8395 24.2383C29.8395 23.1599 30.7137 22.2857 31.7921 22.2857H32.0707ZM18.4473 22.9595C17.741 22.9595 17.1685 23.532 17.1685 24.2383C17.1685 24.9446 17.741 25.5172 18.4473 25.5172H25.1888C25.8951 25.5172 26.4676 24.9446 26.4676 24.2383C26.4676 23.532 25.8951 22.9595 25.1888 22.9595H18.4473ZM18.4473 33.731C17.741 33.731 17.1685 34.3036 17.1685 35.0099C17.1685 35.7162 17.741 36.2887 18.4473 36.2887H21.8483C22.3996 38.1568 24.1279 39.5201 26.1747 39.5201H26.4533C28.9443 39.5201 30.9636 37.5008 30.9636 35.0098C30.9636 32.5189 28.9443 30.4996 26.4533 30.4996H26.1747C24.1279 30.4996 22.3996 31.8629 21.8483 33.731H18.4473ZM33.0539 33.731C32.3476 33.731 31.775 34.3036 31.775 35.0099C31.775 35.7162 32.3476 36.2887 33.0539 36.2887H39.7954C40.5017 36.2887 41.0742 35.7162 41.0742 35.0099C41.0742 34.3036 40.5017 33.731 39.7954 33.731H33.0539ZM24.2221 35.0098C24.2221 33.9315 25.0963 33.0573 26.1747 33.0573H26.4533C27.5317 33.0573 28.4059 33.9315 28.4059 35.0098C28.4059 36.0882 27.5317 36.9624 26.4533 36.9624H26.1747C25.0963 36.9624 24.2221 36.0882 24.2221 35.0098Z" fill="#091230"/>
</svg>
