<svg width="25" height="25" viewBox="0 0 25 25" fill="none" xmlns="http://www.w3.org/2000/svg">
<path fill-rule="evenodd" clip-rule="evenodd" d="M9.58005 4.80838L11.4458 6.59588L11.4597 6.60954C11.9697 7.12054 12.1792 7.82903 12.1792 8.46742C12.1792 9.10581 11.9697 9.81426 11.4598 10.3253L10.552 11.235C10.7657 11.9838 11.2751 12.8097 11.9842 13.5251C12.6952 14.2423 13.5208 14.7615 14.2829 14.9783L15.1901 14.0691C15.7002 13.5578 16.4081 13.3473 17.0466 13.3473C17.685 13.3473 18.3929 13.5578 18.9031 14.0691C18.9031 14.0691 18.903 14.0691 18.9031 14.0691L20.7639 15.9339C21.2739 16.4449 21.4833 17.1534 21.4833 17.7918C21.4833 18.4302 21.2738 19.1386 20.7639 19.6497C19.3763 21.0403 17.5661 21.4594 16.7363 21.4594C15.4519 21.4594 14.2918 21.3803 12.9563 20.7555C11.6542 20.1464 10.2502 19.0498 8.36735 17.1628C6.45901 15.2503 5.37427 13.6864 4.7742 12.3122C4.1659 10.9191 4.08105 9.77727 4.08105 8.77829C4.08105 8.07946 4.16888 7.41054 4.46137 6.72666C4.75093 6.04962 5.21612 5.41612 5.88608 4.7447C6.41063 4.219 7.13377 4.03468 7.77053 4.05927C8.40487 4.08378 9.0869 4.31886 9.58005 4.80838ZM7.70335 5.7982C7.41537 5.78708 7.21375 5.87787 7.11794 5.97388C6.54736 6.54571 6.23712 7.00012 6.0614 7.41098C5.88861 7.81498 5.82128 8.23395 5.82128 8.77829C5.82128 9.64426 5.89167 10.5226 6.36902 11.6158C6.8546 12.7278 7.78592 14.1164 9.59922 15.9337C11.438 17.7765 12.67 18.7004 13.6937 19.1793C14.684 19.6425 15.5396 19.7191 16.7363 19.7191C17.1774 19.7191 18.5194 19.4353 19.532 18.4205C19.6424 18.3098 19.7431 18.0858 19.7431 17.7918C19.7431 17.4977 19.6425 17.2737 19.5321 17.1631L17.6712 15.2983C17.5611 15.1879 17.3386 15.0876 17.0466 15.0876C16.7546 15.0876 16.5321 15.1879 16.422 15.2983L15.1814 16.5415C14.9879 16.7355 14.7143 16.827 14.443 16.7884C13.0835 16.595 11.7564 15.7671 10.7484 14.7502C9.74062 13.7337 8.93153 12.407 8.7419 11.0767C8.70331 10.806 8.79422 10.5329 8.98737 10.3393L10.2279 9.09608C10.3383 8.98546 10.439 8.76146 10.439 8.4674C10.439 8.17777 10.3413 7.95615 10.2329 7.84389L8.36993 6.05901L8.35598 6.04534C8.22935 5.91845 7.99044 5.8093 7.70335 5.7982Z" fill="#676E86"/>
</svg>
